<?xml version="1.0" standalone="no"?>
<!DOCTYPE svg PUBLIC "-//W3C//DTD SVG 20010904//EN"
 "http://www.w3.org/TR/2001/REC-SVG-20010904/DTD/svg10.dtd">
<svg version="1.0" xmlns="http://www.w3.org/2000/svg"
 width="1024.000000pt" height="1024.000000pt" viewBox="0 0 1024.000000 1024.000000"
 preserveAspectRatio="xMidYMid meet">
<metadata>
Created by potrace 1.11, written by Peter Selinger 2001-2013
</metadata>
<g transform="translate(0.000000,1024.000000) scale(0.100000,-0.100000)"
fill="#000000" stroke="none">
<path d="M0 5120 l0 -4180 5120 0 5120 0 0 4180 0 4180 -5120 0 -5120 0 0
-4180z m1803 2667 c-4 -6 0 -8 8 -5 51 21 52 21 44 8 -6 -9 -4 -11 5 -5 20 12
130 14 123 2 -4 -6 -1 -7 8 -1 20 12 51 12 68 0 11 -8 13 -8 7 2 -6 9 0 11 25
7 18 -3 37 -9 42 -12 6 -3 7 -1 3 5 -8 13 20 12 41 -1 6 -4 14 -3 18 3 4 7 13
6 27 -1 15 -8 19 -8 14 0 -4 6 0 11 9 11 9 0 14 -4 11 -9 -7 -10 49 -9 60 2
11 11 26 9 19 -3 -3 -5 -1 -10 4 -10 6 0 11 5 11 10 0 6 5 10 11 10 5 0 7 -6
3 -12 -5 -10 -4 -10 6 -1 10 9 17 10 27 2 9 -8 13 -8 13 0 0 6 5 11 11 11 5 0
7 -6 3 -12 -6 -10 -5 -10 8 -1 8 7 17 10 20 8 10 -10 49 -14 43 -4 -4 5 -1 9
4 9 6 0 11 -5 11 -10 0 -7 6 -7 19 0 14 7 22 7 26 0 5 -8 11 -7 21 1 9 7 14 8
14 1 0 -7 10 -8 29 -2 19 5 33 4 41 -3 10 -9 11 -9 5 3 -8 13 -7 13 8 1 9 -7
17 -10 17 -5 0 5 17 8 37 7 21 -1 38 -2 38 -3 0 0 23 -2 52 -3 28 -1 50 0 48
4 -5 8 33 4 41 -4 12 -12 26 -8 18 6 -5 8 -2 8 9 -2 11 -9 17 -10 17 -2 0 6 5
11 11 11 5 0 7 -4 4 -10 -7 -11 8 -14 19 -3 9 10 37 13 31 4 -2 -4 9 -8 25 -8
16 0 27 3 26 6 -2 3 6 6 19 6 13 0 21 -3 18 -7 -2 -5 3 -8 12 -8 9 0 13 5 9
11 -5 8 -1 8 14 0 27 -14 35 -14 26 2 -6 9 -5 9 8 0 8 -7 18 -10 22 -6 10 10
46 11 52 1 3 -4 10 -8 15 -8 6 0 8 4 5 8 -6 10 51 9 60 -1 10 -10 26 -9 20 1
-6 10 30 9 40 -1 12 -11 26 -8 18 4 -5 8 -2 9 12 1 13 -7 25 -7 37 0 14 7 17
7 13 -1 -4 -6 -2 -11 3 -11 6 0 11 6 12 13 0 9 2 9 6 -1 4 -10 8 -10 21 0 12
10 14 10 8 1 -4 -8 -1 -13 9 -13 10 0 14 5 9 13 -5 9 -4 9 6 0 9 -9 19 -9 33
-2 14 8 18 8 13 0 -4 -6 0 -11 9 -11 9 0 13 5 9 11 -5 8 -1 8 14 0 11 -6 23
-11 27 -11 3 0 3 5 -1 11 -5 8 -1 8 13 0 14 -7 24 -7 33 2 10 9 11 9 6 0 -5
-9 2 -11 23 -8 17 2 35 6 41 10 5 3 10 1 10 -4 0 -6 5 -11 11 -11 5 0 7 6 3
13 -6 10 -4 10 7 0 16 -16 33 -17 23 -1 -5 7 -3 8 7 3 18 -12 269 -14 262 -2
-3 5 4 4 15 -2 14 -7 23 -8 27 -1 4 6 11 7 17 4 13 -8 88 -12 83 -4 -2 3 5 6
15 6 10 0 16 -4 14 -8 -8 -13 11 -9 25 5 8 6 11 7 8 2 -4 -7 30 -12 101 -13
145 -4 157 -4 237 -3 449 4 1125 -4 1125 -13 0 -8 3 -8 8 0 10 14 185 15 194
0 6 -8 8 -7 8 2 0 6 12 12 26 12 16 0 23 -4 18 -12 -5 -7 -3 -8 7 -2 21 13 59
16 59 4 0 -5 5 -10 11 -10 5 0 8 4 5 9 -4 5 59 9 149 8 100 -1 155 -5 155 -12
0 -7 3 -7 8 1 10 14 145 14 154 0 5 -7 8 -7 8 0 0 15 150 15 150 0 0 -7 3 -7
8 -1 9 13 312 18 312 5 0 -6 5 -10 11 -10 5 0 8 4 4 9 -3 6 57 9 150 8 85 -1
155 -5 155 -9 0 -4 5 -8 11 -8 5 0 8 4 5 8 -2 4 92 8 209 8 144 0 211 -4 207
-11 -3 -5 1 -4 10 3 19 15 181 15 212 -1 11 -5 16 -5 13 0 -4 6 19 10 53 10
38 0 60 -4 60 -11 0 -7 3 -7 8 -1 11 15 46 19 36 4 -5 -9 -3 -9 7 -3 20 12
280 14 273 2 -4 -6 4 -5 16 2 16 8 20 9 15 1 -4 -8 2 -10 19 -7 15 3 24 1 21
-4 -3 -4 2 -11 11 -14 8 -3 12 -2 9 4 -3 6 1 7 9 4 9 -3 16 -10 16 -16 0 -5 5
-6 10 -3 6 3 10 2 10 -2 0 -5 14 -17 30 -26 16 -10 30 -25 30 -33 0 -8 5 -12
10 -9 6 3 10 -3 10 -14 0 -10 4 -21 9 -23 5 -1 11 -12 13 -23 1 -11 8 -23 13
-27 6 -5 5 -8 -4 -8 -9 0 -11 -6 -6 -17 10 -25 12 -113 2 -113 -4 0 -4 -8 1
-17 10 -21 10 -33 -1 -50 -5 -7 -4 -13 1 -13 5 0 6 -20 2 -45 -4 -25 -4 -45
-1 -45 9 0 6 -123 -2 -138 -5 -6 -4 -12 1 -12 5 0 6 -19 3 -42 -4 -24 -4 -60
0 -80 3 -21 3 -38 -2 -38 -4 0 -3 -16 1 -35 4 -19 4 -37 0 -40 -4 -3 -4 -21 0
-40 5 -21 4 -38 -2 -41 -6 -4 -5 -10 3 -15 12 -7 11 -9 0 -9 -11 0 -12 -3 -4
-11 8 -8 8 -20 3 -34 -5 -13 -7 -25 -4 -28 10 -10 12 -47 3 -47 -6 0 -7 -5 -3
-12 9 -14 9 -86 0 -95 -3 -3 -1 -12 5 -20 9 -10 8 -13 0 -13 -7 0 -9 -5 -5
-12 9 -14 10 -69 1 -91 -4 -10 -2 -17 4 -17 6 0 7 -5 4 -10 -6 -9 -9 -152 -5
-170 7 -28 6 -40 -3 -40 -7 0 -8 -3 -1 -10 6 -6 7 -35 4 -70 -3 -33 -2 -60 2
-60 5 0 4 -8 -1 -18 -5 -10 -6 -36 -1 -60 4 -23 4 -45 0 -47 -4 -3 -4 -21 0
-40 4 -19 4 -35 -1 -35 -5 0 -5 -10 0 -22 5 -13 5 -32 1 -43 -4 -11 -6 -23 -3
-27 10 -18 11 -48 2 -48 -6 0 -7 -4 -4 -10 12 -20 14 -51 3 -44 -8 5 -9 1 -4
-12 10 -26 13 -164 3 -164 -4 0 -4 -7 1 -16 5 -8 6 -35 2 -60 -4 -24 -4 -44
-1 -44 3 0 6 -27 6 -60 0 -33 -4 -60 -8 -60 -5 0 -5 -5 -2 -10 9 -15 9 -145 1
-159 -4 -6 -4 -11 1 -11 4 0 8 -29 8 -65 0 -36 -4 -65 -8 -65 -5 0 -5 -6 0
-12 9 -17 10 -47 1 -75 -4 -13 -4 -23 0 -23 11 0 8 -124 -3 -132 -6 -5 -5 -8
3 -8 9 0 10 -5 2 -19 -7 -13 -7 -22 0 -26 6 -4 7 -12 1 -23 -5 -9 -5 -26 0
-39 6 -16 5 -23 -4 -23 -8 0 -7 -4 3 -10 11 -7 11 -10 2 -10 -8 0 -10 -5 -5
-12 11 -18 13 -38 3 -38 -4 0 -5 -15 -1 -32 8 -40 8 -49 -2 -65 -5 -7 -5 -13
0 -13 4 0 8 -11 8 -25 0 -14 -4 -25 -8 -25 -5 0 -5 -5 -2 -11 11 -16 12 -69 2
-69 -4 0 -5 -5 -2 -10 9 -15 12 -120 3 -120 -4 0 -4 -10 1 -23 5 -13 5 -30 0
-39 -6 -11 -5 -19 2 -24 8 -4 7 -9 -2 -15 -8 -5 -9 -9 -4 -9 10 0 11 -127 1
-137 -3 -3 -1 -14 5 -24 5 -11 6 -19 2 -19 -8 0 -8 -143 1 -165 2 -6 0 -18 -4
-25 -5 -7 -4 -24 1 -37 6 -15 5 -23 -2 -23 -8 0 -8 -4 -1 -13 7 -8 7 -18 2
-27 -5 -8 -6 -18 -3 -23 9 -15 10 -51 1 -69 -5 -10 -4 -18 3 -20 7 -2 7 -12 0
-31 -6 -16 -8 -26 -3 -24 9 6 8 -76 -2 -91 -4 -7 -4 -12 1 -12 9 0 10 -206 1
-215 -3 -3 -2 -21 2 -40 5 -21 3 -38 -3 -44 -8 -8 -7 -11 2 -11 10 0 11 -3 2
-13 -6 -8 -8 -17 -4 -20 3 -4 1 -7 -5 -7 -6 0 -9 -9 -7 -20 2 -11 0 -20 -6
-20 -5 0 -8 -6 -7 -12 2 -7 -2 -12 -9 -11 -6 1 -10 -5 -9 -15 2 -9 -3 -23 -11
-30 -7 -8 -10 -19 -6 -25 4 -7 -2 -5 -13 3 -10 8 -16 11 -12 6 9 -11 -16 -36
-35 -36 -8 0 -22 -9 -32 -20 -12 -13 -31 -20 -54 -20 -26 0 -32 -3 -21 -10 12
-7 10 -9 -7 -7 -12 0 -19 5 -17 9 3 4 0 8 -5 8 -6 0 -11 -4 -11 -10 0 -5 -5
-10 -11 -10 -5 0 -8 4 -5 8 2 4 -5 9 -17 9 -17 2 -19 0 -7 -7 10 -7 1 -9 -30
-7 -25 1 -48 6 -52 12 -5 6 -8 6 -8 -2 0 -15 -179 -14 -199 1 -11 8 -13 8 -7
-1 10 -17 -16 -17 -33 -1 -11 10 -13 10 -7 1 4 -7 2 -13 -3 -13 -6 0 -11 6
-11 13 0 8 -3 8 -8 1 -9 -13 -174 -16 -166 -3 3 5 0 9 -5 9 -6 0 -11 -4 -11
-10 0 -5 -5 -10 -11 -10 -5 0 -7 6 -3 13 6 9 4 9 -7 -1 -7 -6 -20 -12 -28 -12
-13 0 -14 2 -2 9 9 6 4 8 -17 7 -17 -1 -34 -5 -38 -9 -4 -4 -13 -2 -20 4 -8 7
-14 7 -19 -1 -3 -5 -14 -10 -23 -10 -14 0 -14 2 -3 9 9 6 4 8 -17 7 -17 -1
-34 -5 -38 -9 -11 -10 -26 -9 -19 2 6 10 -27 7 -44 -4 -5 -3 -12 -1 -16 5 -4
6 -13 7 -23 2 -21 -10 -223 -9 -240 2 -7 4 -12 2 -12 -5 0 -8 -3 -9 -13 0 -8
6 -16 8 -20 5 -8 -9 -368 -11 -373 -2 -3 4 -10 8 -15 8 -6 0 -8 -4 -5 -8 3 -5
-1 -9 -9 -9 -8 0 -12 4 -9 9 8 13 -10 10 -25 -5 -11 -9 -13 -9 -7 1 8 13 -6
17 -18 5 -10 -10 -86 -11 -80 -1 3 5 -2 8 -11 8 -9 0 -14 -4 -11 -8 6 -10 -30
-9 -40 1 -10 10 -26 9 -20 -1 3 -5 -1 -9 -9 -9 -8 0 -12 4 -9 9 8 13 -10 10
-25 -5 -11 -9 -13 -9 -7 1 5 8 -2 12 -24 12 -22 0 -29 -4 -24 -12 6 -10 4 -10
-7 -1 -17 17 -32 17 -23 1 6 -10 5 -10 -7 -2 -18 15 -131 14 -141 0 -5 -8 -8
-8 -8 -1 0 7 -29 11 -71 12 -44 0 -66 -3 -58 -8 8 -5 11 -9 6 -9 -4 0 -16 5
-26 12 -11 6 -26 8 -37 3 -29 -12 -82 -16 -64 -4 11 6 5 8 -20 7 -19 -2 -38
-7 -42 -13 -5 -7 -8 -6 -8 1 0 12 -49 13 -69 0 -10 -6 -12 -6 -7 2 10 16 -26
15 -43 -1 -11 -9 -14 -9 -18 1 -3 6 -9 12 -14 12 -6 0 -8 -4 -5 -8 2 -4 -4 -8
-14 -8 -10 0 -16 4 -14 8 8 13 -11 9 -25 -5 -11 -9 -13 -9 -7 1 8 14 -10 17
-19 2 -3 -5 -12 -10 -18 -10 -7 0 -6 4 3 10 13 8 13 10 -2 10 -9 0 -20 -4 -23
-10 -3 -5 -13 -10 -21 -10 -8 0 -12 5 -9 10 8 13 -1 13 -27 -1 -15 -8 -19 -8
-14 0 10 15 -7 14 -23 -2 -11 -9 -13 -9 -7 1 9 16 -6 16 -23 -1 -11 -9 -13 -9
-7 1 5 9 -3 12 -31 12 -28 0 -34 -3 -23 -10 9 -6 10 -10 3 -10 -6 0 -15 5 -18
10 -3 5 -17 10 -31 10 -17 0 -23 -4 -18 -12 5 -7 3 -8 -7 -3 -22 14 -93 15
-101 2 -6 -9 -8 -9 -8 1 0 16 -32 16 -49 0 -8 -7 -11 -8 -8 -2 5 8 -57 12
-221 12 -125 1 -229 2 -232 3 -3 1 -9 1 -14 0 -20 -4 -579 -1 -583 3 -3 2 -18
0 -34 -4 -17 -5 -31 -5 -35 1 -3 5 -10 7 -15 4 -5 -3 -165 -6 -356 -5 -192 0
-600 1 -908 1 -401 1 -564 5 -574 13 -12 8 -13 8 -7 -2 6 -10 -51 -12 -283
-10 -202 1 -288 5 -284 12 3 6 0 5 -8 -1 -17 -16 -33 -17 -23 -1 5 8 2 9 -9 5
-10 -3 -17 -2 -17 3 0 6 -3 9 -7 8 -29 -6 -129 83 -117 103 4 7 3 9 -3 6 -5
-3 -17 7 -27 24 -13 22 -14 29 -4 29 10 0 10 2 -1 9 -12 7 -14 56 -16 260 -1
176 2 248 9 244 7 -5 7 -2 0 8 -13 17 -13 377 0 398 6 8 5 12 0 8 -11 -6 -13
218 -2 229 4 4 5 11 1 17 -11 18 -11 87 0 80 6 -4 7 -1 2 8 -13 20 -14 140 -2
132 6 -4 7 -1 1 8 -11 19 -13 79 -2 79 5 0 6 6 1 13 -10 16 -11 107 0 107 4 0
5 6 0 13 -11 17 -11 59 0 81 5 11 5 16 0 13 -5 -4 -10 7 -10 23 0 17 5 27 10
23 6 -4 7 -1 2 7 -12 19 -14 80 -3 80 5 0 6 6 1 13 -10 17 -11 199 -1 214 5 6
5 14 1 16 -5 3 -8 30 -6 59 2 29 3 58 3 63 0 6 -1 60 -3 120 -2 61 0 117 5
126 4 9 4 20 0 24 -11 11 -8 95 3 95 7 0 7 3 0 8 -13 9 -14 603 -1 595 5 -4 6
0 1 7 -11 18 -13 130 -3 136 5 3 5 11 1 17 -12 19 -10 117 1 117 7 0 8 3 1 8
-14 10 -16 104 -2 95 6 -4 7 -1 1 8 -10 17 -12 309 -1 316 4 2 4 10 0 16 -11
17 -11 379 0 401 5 10 5 16 0 13 -4 -3 -8 73 -8 169 0 96 2 174 6 174 3 0 4
14 3 30 -1 17 2 30 8 30 5 0 7 3 4 8 -7 12 63 102 80 102 10 0 14 6 10 15 -4
10 1 15 15 15 11 0 17 5 14 10 -5 9 8 12 31 9 4 0 10 4 14 11 4 6 21 12 38 12
17 1 29 4 27 8 -2 4 2 7 10 7 8 0 11 -5 8 -10z"/>
</g>
</svg>
