<svg xmlns="http://www.w3.org/2000/svg" viewBox="0 0 365.73 59.87"><defs><style>.cls-1{fill:#fff;}</style></defs><g id="Layer_2" data-name="Layer 2"><g id="Layer_1-2" data-name="Layer 1"><g id="this.psd"><path class="cls-1" d="M228.74,17.32c-3.4-3.34-7.33-5.85-12.09-6.43a30.85,30.85,0,0,0-8.74.23c-1.41.24-2.8,1.64-3.83,2.83s-.56,2.48.81,3.26c3.07,1.74,6.21,3.35,9.24,5.15a81.75,81.75,0,0,1,7.39,4.78c7.48,5.57,6.13,18.9.27,23.24a28.36,28.36,0,0,1-15.17,6C198.4,56.92,191,55,184.7,49.43a2.47,2.47,0,0,1-.93-1.68c.39-3,1-6,1.52-9.25,1.5,1.13,2.78,2.11,4.08,3.06,5.12,3.71,10.6,6.29,17.18,5.72a12.09,12.09,0,0,0,7.24-3.3,6.54,6.54,0,0,0,.2-9,36.89,36.89,0,0,0-6.84-5.43C204.9,28.1,202.38,27,200,25.75c-8.36-4.52-8.43-12.83-1.43-18.64,5.5-4.57,11.89-5.26,18.67-4.17a36.29,36.29,0,0,1,12.25,4.32,2.14,2.14,0,0,1,1.06,1.53c-.32,2.82-.83,5.63-1.27,8.44Z"/><path class="cls-1" d="M246,5.77c-1,7.59-1.9,14.93-2.89,22.7,2.77-2.52,5.18-4.82,7.73-7a5,5,0,0,1,2.77-1.05c2.26-.15,4.53-.05,6.79-.05l.12.61-6.94,8.36c-1.28,1.53-2.5,3.11-3.86,4.57a2.17,2.17,0,0,0-.45,2.52c2.31,6.63,6.51,11.88,11.78,16.39l.66.58a4,4,0,0,1,.21.58l-4.73,5.85c-7.44-4.62-11.67-11.63-15.87-19.33a20.79,20.79,0,0,0-1.42,3.4c-.43,2-.69,4-.95,6.07-.14,1.07-.58,1.5-1.71,1.46-2.4-.08-4.81,0-7.38,0,.69-4.39,1.31-8.55,2-12.7q2.59-15.24,5.24-30.48c.43-2.5.43-2.5,2.93-2.5Z"/><path class="cls-1" d="M352.92,7.56l-2.06,16.27c1.66-.84,2.76-1.46,3.91-2,5.68-2.57,10.52.72,10,6.94a80.52,80.52,0,0,1-1.53,7.91,52.86,52.86,0,0,0-.93,5.7c-.18,2.23.43,2.67,2.69,2.37a6,6,0,0,1,.74,0c-.15,1.47-.28,2.86-.44,4.24-.27,2.32-1.13,4.13-3.74,4.69A6.19,6.19,0,0,1,355,51.43c-2.17-2.94-2-6.24-1.4-9.6.5-2.71,1.05-5.41,1.38-8.14.1-.82-.4-2.43-.77-2.47-1.17-.14-2.81-.11-3.53.59A8.67,8.67,0,0,0,348.45,36c-1,4.81-1.82,9.67-2.59,14.52-.21,1.31-.78,1.85-2,1.85h-7c.27-2.47.39-4.78.78-7,2.07-12.17,4.22-24.34,6.28-36.51.24-1.37.78-1.93,2.17-1.8C348.23,7.25,350.4,7.37,352.92,7.56Z"/><path class="cls-1" d="M280,45c-.42,2.25-.76,4.43-1.29,6.56-.1.41-1,.82-1.5.91-5.87,1-11.44.29-15.51-4.45-4.23-4.92-4.47-10.71-2.15-16.55,3-7.65,10.33-12,17.63-10.87,3.4.55,6.36,2,7.47,5.4s-.31,6.75-2.79,9.31a13.82,13.82,0,0,1-8.65,4.35,23,23,0,0,1-3.66-.33c-.53,0-1.41-.15-1.54.09a2.56,2.56,0,0,0-.14,1.81c.77,2.52,3.12,4.13,6.29,4.18C276,45.44,277.78,45.17,280,45Zm-8.88-11.66a8,8,0,0,0,5.23-2.74c1-1.15.41-3-.9-3a6.52,6.52,0,0,0-5.64,2.63,2.86,2.86,0,0,0-.4,2.27C269.6,33,270.66,33.14,271.14,33.34Z"/><path class="cls-1" d="M304.58,43c0,7.19-3.64,9.94-9.88,8.79A4.82,4.82,0,0,1,291,48.42c-1.28-3.42-.65-6.82,0-10.22.38-2,.84-4,1.22-6,.54-2.87.14-3.32-3.05-3.21.35-2.43.69-4.83,1-7.15.21-.12.31-.22.42-.23,3.43-.27,3.45-.26,4.08-3.72.55-3,1-6,1.55-9,.1-.57.25-1.12.38-1.7h8.26c-.65,4.68-1.28,9.21-1.94,14l6.56.85c-.46,2.27-.91,4.46-1.37,6.72l-6.55.69c-.63,3.45-1.29,6.88-1.87,10.32a5.69,5.69,0,0,0,.18,2.08c.6,2.6,1.7,3.05,4,1.66C304,43.31,304.28,43.18,304.58,43Z"/><path class="cls-1" d="M334.84,29.6l-1.39-.75c-4.89-2.69-8.75-1.79-11.93,2.78-2.92,4.18-2.37,10.06,1.24,13.11a6.33,6.33,0,0,0,7.1.84c.73-.32,1.43-.72,2.51-1.27-.27,2.06-.42,3.79-.76,5.49-.37,1.86-1.61,2.79-3.51,3.21-11.58,2.54-17.94-8.2-16.79-16.18.9-6.26,3.38-11.63,9.21-14.8a14.94,14.94,0,0,1,14.08-.25c1,.47,1.53,1,1.21,2.29C335.37,25.81,335.18,27.61,334.84,29.6Z"/><path class="cls-1" d="M43.44,12.19c-7.53-3.47-14.83-3.75-21.7.8-4.45,2.95-7.18,7.82-7,11.54H34.4l-.78,7.84c-2.79.1-5.52.23-8.26.29-2.94.06-5.89.15-8.83,0-1.77-.06-2.21.76-2,2.22a12,12,0,0,0,6,8.71,19.4,19.4,0,0,0,14,2.73c1.9-.37,3.79-.78,6.15-1.26-.42,3.11-.64,6-1.29,8.9A3.64,3.64,0,0,1,37,56.21c-6.75,1-13.37.74-19.57-2.61a23.6,23.6,0,0,1-11.62-14,19.9,19.9,0,0,1-1-3c-.41-2.65-1.6-4.3-4.85-3.77.27-2.37.43-4.5.79-6.6C1.07,24.53,2.46,24.51,4,24.7c.17-.53.33-1,.47-1.49C7,14,11.77,6.28,20.93,2.52A30.77,30.77,0,0,1,39.63.72c.34.08.68.18,1,.29,4,1.26,4.26,1.7,3.68,5.77C44.07,8.51,43.76,10.23,43.44,12.19Z"/><path class="cls-1" d="M102.21,5.53,99.88,21.8a26.44,26.44,0,0,1,3-1.2,25.12,25.12,0,0,1,5.8-1.18c3.42,0,5.6,3,5.08,6.31-.77,5.1-1.46,10.21-2.24,15.31-.19,1.29.3,1.88,1.54,2,.52,0,1,.05,1.87.09-.25,1.92-.39,3.82-.77,5.67-.49,2.3-2.44,2.83-4.41,3.18a5.63,5.63,0,0,1-5.5-2.09,8.21,8.21,0,0,1-1.75-6.93c.58-3.58,1.22-7.15,1.64-10.75a3.42,3.42,0,0,0-1-2.55c-1.11-1-2.69-.45-3.6.94a20.54,20.54,0,0,0-2.92,8.94c-.4,3.08-.89,6.14-1.29,9.22-.15,1.17-.72,1.57-1.86,1.54-2.28-.05-4.55,0-7.06,0,.36-2.57.65-5.11,1.09-7.63C89.58,30.75,91.73,18.88,93.8,7c.21-1.2.72-1.53,1.86-1.49C97.7,5.58,99.75,5.53,102.21,5.53Z"/><path class="cls-1" d="M62.18,19.89c-.34,2.46-.57,4.56-1,6.62-.07.39-.66.83-1.09,1a4.7,4.7,0,0,1-1.58,0c-3.64-.16-4.13.28-4.67,3.76-.26,1.61-.74,3.19-1.12,4.78-.05.23-.12.46-.16.68Q51.33,43,57.52,42.14A7.64,7.64,0,0,1,46.9,50c-3.06-1.29-3.84-4.06-3.8-7a42.37,42.37,0,0,1,1.07-6.55c.37-2.14.82-4.26,1.1-6.4s-.42-2.84-2.66-2.77c-.57,0-1.14,0-2,.09.37-2.35.67-4.53,1.1-6.69.06-.31.71-.64,1.13-.71.62-.1,1.29.08,1.93,0a2.37,2.37,0,0,0,2.49-2.2c.51-3.53,1.22-7,1.76-10.56.18-1.17.57-1.77,1.88-1.73,2.21.08,4.43,0,6.89,0-.46,3.17-.87,6-1.29,8.92a26.48,26.48,0,0,1-.48,2.94c-.41,1.62.34,2.33,1.83,2.42C59.22,20,60.56,19.89,62.18,19.89Z"/><path class="cls-1" d="M85,28c-1.06-.63-1.89-1.16-2.75-1.63a6.32,6.32,0,0,0-7,.35c-4.55,3-6.52,9-4.42,13.53,1.93,4.18,5.87,5.55,9.95,3.44l1.94-1c-.26,2.17-.2,4.08-.78,5.78A4.39,4.39,0,0,1,79.39,51c-9.25,2.39-16.31-2.65-17.56-12.15A18.47,18.47,0,0,1,72.72,19.54a14.48,14.48,0,0,1,11.66.16,2.54,2.54,0,0,1,1.76,3.17Z"/><path class="cls-1" d="M174.45,36.52c-1,4.18-1.83,8.18-2.84,12.14A5.15,5.15,0,0,1,170,51.21c-3,2.48-6,4.82-9.17,7.27L148.61,42.76c-1.26,1.39-2.35,2.74-3.6,4a20.19,20.19,0,0,1-16.54,5.95c-2.07-.2-4.06-1.37-6-2.19a1.35,1.35,0,0,1-.53-1.15c.15-1.85.4-3.69.62-5.55,9.73,2.15,16.8-.53,19.34-7.26-1.71-.37-1.44-1.62-1.21-2.86.31-1.78.61-3.57.93-5.44.53,0,1,0,1.45,0,2.58.06,3.91-.77,4.93-3.14.37-.86.6-1.78.9-2.66,3.23-9.28,9.41-15.53,19-18a14.85,14.85,0,0,1,10.36.72,2,2,0,0,1,1.34,2.56c-1.25,6.44-2.35,12.91-3.51,19.36a5.25,5.25,0,0,0,0,.7l3.28.66c-.13,2.21-.16,4.36-.41,6.49-.21,1.74-1.14,2.3-2.85,2C175.66,36.83,175.21,36.7,174.45,36.52Zm-5.84-23.34a13.77,13.77,0,0,0-2.21.75c-4.82,2.85-7.66,7.31-9.87,12.25-.39.88.11,1.28,1,1.33,1.64.1,3.27.28,4.91.37,3.27.18,3.88-.26,4.42-3.42C167.49,20.84,168,17.21,168.61,13.18ZM157.05,36.67c1.66,2.51,3.1,4.77,4.63,7,.29.41,1,.56,1.61.91.38-2.83.71-5.32,1.05-7.87Z"/></g></g></g></svg>