<svg id="pen" xmlns="http://www.w3.org/2000/svg" width="31.5" height="31.5" viewBox="0 0 31.5 31.5">
  <defs>
    <style>
      .cls-1, .cls-2 {
        fill-rule: evenodd;
      }

      .cls-2 {
        fill: #fff;
      }
    </style>
  </defs>
  <path id="body" class="cls-1" d="M21.128,7.963h0L27,13.854l0.814-.824L22,7.076Zm7.436-5.7h0A4.215,4.215,0,0,1,32.75,6.507a4.733,4.733,0,0,1-.809,2.6L30.252,10.75,24.375,4.8l1.688-1.711a4.24,4.24,0,0,1,2.5-.823h0ZM22.751,6.316l5.874,5.954,0.814-.886L23.565,5.492ZM20.189,8.6h0L3.69,25.318A1.124,1.124,0,0,0,3.5,25.7L1.252,32.285v0.381h0a1.168,1.168,0,0,0,.315.759,1.149,1.149,0,0,0,.749.316,0.562,0.562,0,0,0,.314-0.063l6.5-2.217a1,1,0,0,0,.44-0.253L26,14.55Z" transform="translate(-1.25 -2.25)"/>
  <path id="tip" class="cls-2" d="M4.856,25.569A8.575,8.575,0,0,1,7.8,27.285a6.135,6.135,0,0,1,1.633,2.86L2.569,32.433Z" transform="translate(-1.25 -2.25)"/>
</svg>
